# xmcd CD database file
#
# Track frame offsets:
#	150
#	27554
#	39844
#	79067
#	117940
#	154859
#	167174
#	174691
#	217284
#	226650
#
# Disc length: 3592 seconds
#
# Revision: 0
# Processed by: cddbd v1.5.2PL0 Copyright (c) Steve Scherf et al.
# Submitted via: CDex 1.51
#
DISCID=7f0e060a
DTITLE=Tony Vos Henk Coolen Kwartet - The Best Sessions
DYEAR=1996
DGENRE=Jazz
TTITLE0=Love For Sale
TTITLE1=Miss Otis Regrets
TTITLE2=Embrujo
TTITLE3=The Old Man From The Old Country
TTITLE4=Corcovado
TTITLE5=Lush Life
TTITLE6=Polska
TTITLE7=My Funny Valentine
TTITLE8=Ack Varmeland Du Skona
TTITLE9=Lover Man
EXTD=YEAR: 1996
EXTT0=
EXTT1=
EXTT2=
EXTT3=
EXTT4=
EXTT5=
EXTT6=
EXTT7=
EXTT8=
EXTT9=
PLAYORDER=
